<svg id="Layer_1" data-name="Layer 1" xmlns="http://www.w3.org/2000/svg" viewBox="0 0 1823.38 451.05"><defs><style>.cls-1{opacity:0.3;}</style></defs><title>Blax Design Logo</title><g class="cls-1"><rect x="1072.38" y="85.67" width="2" height="275.64"/></g><path d="M1142.63,175.62q-.36,6.85-3.85,10.5t-9.89,3.65a12.24,12.24,0,0,1-10.2-4.88q-3.78-4.87-3.78-13.22v-7.74q0-8.33,3.89-13.15a12.82,12.82,0,0,1,10.59-4.84q6.18,0,9.56,3.69t3.68,10.58h-5.42q-.36-5.22-2.2-7.44a6.89,6.89,0,0,0-5.62-2.23,7.64,7.64,0,0,0-6.71,3.42q-2.34,3.4-2.35,10v7.82q0,6.48,2.19,9.93a7.06,7.06,0,0,0,6.37,3.46q4.18,0,6-2.08c1.23-1.39,2-3.88,2.29-7.47Z"/><path d="M1174.79,171.93h-7.5v17.25h-5.4V146.53h12q6.27,0,9.49,3.27t3.22,9.56a13.3,13.3,0,0,1-1.74,6.9,11,11,0,0,1-4.94,4.44l8.26,18.13v.35h-5.77Zm-7.5-4.6h6.5a7,7,0,0,0,5.38-2.17,8.27,8.27,0,0,0,2-5.81q0-8.22-7.44-8.22h-6.44Z"/><path d="M1226.19,169.47H1211.1v15.12h17.58v4.59h-22.94V146.53h22.65v4.6H1211.1v13.74h15.09Z"/><path d="M1267.43,178H1253l-3.31,11.16h-5.5l13.74-42.65h4.6l13.76,42.65h-5.5Zm-13-4.6h11.63L1260.22,154Z"/><path d="M1315.26,151.13H1304v38.05h-5.36V151.13h-11.2v-4.6h27.78Z"/><path d="M1339.15,189.18h-5.36V146.53h5.36Z"/><path d="M1372.74,181l9.76-34.42h5.89l-13.27,42.65h-4.69l-13.24-42.65h5.86Z"/><path d="M1426.61,169.47h-15.09v15.12h17.58v4.59h-22.94V146.53h22.65v4.6h-17.29v13.74h15.09Z"/><path d="M1473.7,189.18V146.53h10.16q7.47,0,11.6,4.67t4.13,13.14v7.15q0,8.46-4.19,13.08t-12.15,4.61Zm5.36-38.05v33.46h4.3q5.66,0,8.27-3.24t2.66-9.61v-7.56q0-6.75-2.59-9.9t-7.84-3.15Z"/><path d="M1540.39,169.47H1525.3v15.12h17.58v4.59h-22.94V146.53h22.65v4.6H1525.3v13.74h15.09Z"/><path d="M1580.37,178.4a6.57,6.57,0,0,0-1.73-4.89,17.64,17.64,0,0,0-6.24-3.31,27,27,0,0,1-6.9-3.38,11.92,11.92,0,0,1-3.57-4,12,12,0,0,1,2.2-13.55,12.21,12.21,0,0,1,8.86-3.28,13.2,13.2,0,0,1,6.68,1.68,11.41,11.41,0,0,1,4.51,4.65,13.85,13.85,0,0,1,1.58,6.56h-5.39a9,9,0,0,0-1.9-6.12,6.93,6.93,0,0,0-5.48-2.17,6.75,6.75,0,0,0-5,1.82,7,7,0,0,0-1.79,5.11,6,6,0,0,0,1.94,4.52,17.14,17.14,0,0,0,6,3.26q6.3,2.08,9,5.13a11.51,11.51,0,0,1,2.71,8,10.76,10.76,0,0,1-3.37,8.3q-3.36,3.12-9.17,3.12a14.69,14.69,0,0,1-6.87-1.63,12.2,12.2,0,0,1-5-4.57,12.66,12.66,0,0,1-1.8-6.75H1565a8.28,8.28,0,0,0,2.21,6.15,8.15,8.15,0,0,0,6,2.2,7.11,7.11,0,0,0,5.33-1.82A6.72,6.72,0,0,0,1580.37,178.4Z"/><path d="M1610.42,189.18h-5.36V146.53h5.36Z"/><path d="M1658.51,183.88l-.94,1.17q-4,4.72-11.83,4.72-6.91,0-10.86-4.58c-2.62-3.06-4-7.38-4-13v-8.38q0-9,3.58-13.43t10.74-4.47q6.09,0,9.54,3.39t3.79,9.68h-5.36a10.76,10.76,0,0,0-2.21-6.23q-1.89-2.24-5.73-2.24c-3.07,0-5.31,1-6.74,3s-2.17,5.2-2.22,9.59v8.7q0,6.45,2.46,9.89a8.16,8.16,0,0,0,7.06,3.44q4.34,0,6.59-2.1l.79-.73v-9.8h-7.79v-4.6h13.15Z"/><path d="M1707.13,189.18h-5.39l-17.08-32.87v32.87h-5.39V146.53h5.39l17.14,33v-33h5.33Z"/><path d="M1752.58,177.73a11.11,11.11,0,0,1,1.45-5.58,23.86,23.86,0,0,1,5.55-6,30.33,30.33,0,0,1-3.3-5.55,11.49,11.49,0,0,1-.89-4.33q0-4.89,2.51-7.63a8.68,8.68,0,0,1,6.72-2.74,8.46,8.46,0,0,1,6.36,2.58,8.92,8.92,0,0,1,2.49,6.45,10.9,10.9,0,0,1-1,4.65A13.59,13.59,0,0,1,1769,164l-3,2.58,7.5,10.81a21.2,21.2,0,0,0,1.37-7.85h4.63q0,7.38-3,12.18l5.21,7.5h-6.21l-2.17-3.13a11.94,11.94,0,0,1-4,2.72,12.47,12.47,0,0,1-4.92,1,11.27,11.27,0,0,1-8.56-3.34A12.07,12.07,0,0,1,1752.58,177.73Zm11.75,7.62a8.4,8.4,0,0,0,6.3-3.23l-8.47-12.33-.88.73c-2.36,2.25-3.55,4.65-3.55,7.21a8.33,8.33,0,0,0,1.76,5.51A6,6,0,0,0,1764.33,185.35Zm-3.78-29.21a7.53,7.53,0,0,0,.79,3.25,27.43,27.43,0,0,0,2.05,3.54l2.25-1.93a8.54,8.54,0,0,0,2.44-2.77,7.43,7.43,0,0,0,.64-3.26,4.74,4.74,0,0,0-1.17-3.26,3.81,3.81,0,0,0-3-1.31,3.34,3.34,0,0,0-3,1.64A7.29,7.29,0,0,0,1760.55,156.14Z"/><path d="M1124,275.74l.55,4.77.85-4.22,6.83-29.76h4.48l6.62,29.76.85,4.34.62-4.92,5.21-29.18h5.36l-8.49,42.65h-4.84L1135,258.1l-.44-2.52-.44,2.52-7.38,31.08h-4.86l-8.47-42.65h5.36Z"/><path d="M1194,269.47H1179v15.12h17.57v4.59h-22.94V246.53h22.65v4.6H1179v13.74H1194Z"/><path d="M1215.38,289.18V246.53h12.16c3.88,0,6.81.95,8.77,2.84s3,4.74,3,8.53a9.38,9.38,0,0,1-1.5,5.27,10,10,0,0,1-4,3.54,8.12,8.12,0,0,1,4.64,3.61,12.07,12.07,0,0,1,1.72,6.56q0,5.75-3.15,9t-9,3.28Zm5.36-24.46h6.89a5.76,5.76,0,0,0,4.49-1.88,7.12,7.12,0,0,0,1.72-5c0-2.35-.52-4.05-1.56-5.12a6.3,6.3,0,0,0-4.74-1.6h-6.8Zm0,4.51v15.36h7.32a6.14,6.14,0,0,0,4.84-2,8.21,8.21,0,0,0,1.79-5.64q0-7.71-6.51-7.71Z"/><path d="M1285.84,289.18V246.53H1296q7.47,0,11.6,4.67t4.13,13.14v7.15q0,8.46-4.19,13.08t-12.16,4.61Zm5.37-38.05v33.46h4.3c3.77,0,6.53-1.08,8.26-3.24s2.63-5.37,2.67-9.61v-7.56q0-6.75-2.59-9.9t-7.84-3.15Z"/><path d="M1352.54,269.47h-15.09v15.12H1355v4.59h-22.94V246.53h22.65v4.6h-17.29v13.74h15.09Z"/><path d="M1386.07,281l9.76-34.42h5.89l-13.27,42.65h-4.69l-13.24-42.65h5.86Z"/><path d="M1439.94,269.47h-15.09v15.12h17.58v4.59h-22.94V246.53h22.65v4.6h-17.29v13.74h15.09Z"/><path d="M1466.68,284.59h16.72v4.59h-22.11V246.53h5.39Z"/><path d="M1527.63,271.61q0,8.73-3.72,13.44t-10.58,4.72a12.86,12.86,0,0,1-10.41-4.58q-3.83-4.59-4-13v-8q0-8.55,3.78-13.4a12.62,12.62,0,0,1,10.55-4.85q6.73,0,10.5,4.65t3.85,13.25Zm-5.36-7.47q0-6.78-2.21-10.07a8.51,8.51,0,0,0-13.48.05q-2.26,3.33-2.3,9.84v7.65q0,6.52,2.27,10a7.62,7.62,0,0,0,6.78,3.43q4.51,0,6.68-3.17t2.26-9.7Z"/><path d="M1553.28,272.49v16.69h-5.36V246.53h13.6q5.94,0,9.34,3.56a13.13,13.13,0,0,1,3.4,9.48q0,6.15-3.24,9.47t-9.12,3.45Zm0-4.6h8.24a6.93,6.93,0,0,0,5.47-2.15,8.91,8.91,0,0,0,1.91-6.13,9.25,9.25,0,0,0-2-6.16,6.69,6.69,0,0,0-5.4-2.32h-8.26Z"/><path d="M1600.09,246.53l11.13,34.8,11.13-34.8h6.92v42.65h-5.36V272.57l.49-16.64-11.16,33.25h-4.1L1598,256.05l.5,16.52v16.61h-5.37V246.53Z"/><path d="M1671,269.47h-15.09v15.12h17.58v4.59H1650.5V246.53h22.64v4.6h-17.28v13.74H1671Z"/><path d="M1720.15,289.18h-5.39l-17.08-32.87v32.87h-5.39V246.53h5.39l17.14,33v-33h5.33Z"/><path d="M1765.52,251.13H1754.3v38.05h-5.36V251.13h-11.19v-4.6h27.77Z"/><path d="M43.26,268.8V176.37H71.82q14.48,0,22,6.45t7.52,18.88a22.82,22.82,0,0,1-3.11,12.13,18.37,18.37,0,0,1-8.51,7.42,16.23,16.23,0,0,1,9.59,7.14,24.49,24.49,0,0,1,3.36,13.24q0,13.45-7.39,20.31T73.85,268.8ZM61.92,215h9.71q11,0,11-11.36c0-4.19-.84-7.19-2.54-9s-4.44-2.73-8.25-2.73h-9.9Zm0,13.59v24.69H73.85c3.35,0,5.88-1,7.62-3.11s2.6-5,2.6-8.83q0-12.44-9-12.75Z"/><path d="M154.35,253.31h32.76V268.8H135.69V176.37h18.66Z"/><path d="M262.72,249.88H237.27l-5,18.92H212.58l28.88-92.43h17.07L287.6,268.8H267.67Zm-21.39-15.55H258.6l-8.64-33Z"/><path d="M344.68,208.11l12.44-31.74h21.4L356.81,222.2,379,268.8H357.38l-12.7-32.31L332.05,268.8H310.41l22.21-46.6-21.77-45.83h21.39Z"/><path d="M457.44,268.8V176.37h24.44q16.19,0,25.8,10.29t9.81,28.18v15q0,18.23-9.61,28.6T481.37,268.8Zm18.66-76.87v61.38h5.59q9.33,0,13.14-4.92t4-17V215.35q0-12.94-3.62-18.06t-12.31-5.36Z"/><path d="M598.12,228.81H569.05v24.5h34.4V268.8H550.38V176.37h52.94v15.56H569.05v21.83h29.07Z"/><path d="M672.72,244.55c0-3.77-1-6.61-2.89-8.54s-5.43-3.92-10.51-6q-13.89-5.26-20-12.34a24.85,24.85,0,0,1-6.1-16.73q0-11.69,8.29-18.76t21-7.07a31.5,31.5,0,0,1,15.17,3.58A24.83,24.83,0,0,1,688,188.82a30.36,30.36,0,0,1,3.59,14.85H673q0-6.48-2.76-9.87c-1.84-2.26-4.5-3.4-8-3.4a10,10,0,0,0-7.61,2.89,10.87,10.87,0,0,0-2.73,7.78,9.55,9.55,0,0,0,3,6.88q3.06,3.09,10.79,6.38,13.53,4.89,19.65,12t6.13,18.09q0,12.06-7.68,18.85t-20.89,6.8a35.9,35.9,0,0,1-16.31-3.69,27.55,27.55,0,0,1-11.52-10.53A30.64,30.64,0,0,1,631,239.66h18.73q0,8,3.11,11.62t10.15,3.62Q672.72,254.9,672.72,244.55Z"/><path d="M742.87,268.8H724.21V176.37h18.66Z"/><path d="M840.89,258.32a33.94,33.94,0,0,1-13.23,8.79,48.33,48.33,0,0,1-17.17,3q-15.94,0-24.76-9.87t-9.08-28.73V214.84q0-19.11,8.35-29.42t24.34-10.31q15,0,22.7,7.42t8.85,23.3H822.74q-.76-8.82-3.68-12t-9.14-3.21q-7.56,0-11,5.53t-3.55,17.58v16.76q0,12.63,3.78,18.37t12.41,5.75a16.24,16.24,0,0,0,8.95-2.22l1.65-1.15V234.27H809.09v-14.1h31.8Z"/><path d="M938.21,268.8H919.55l-27.29-60.62V268.8H873.6V176.37h18.66l27.36,60.69V176.37h18.59Z"/></svg>